<?xml version="1.0" encoding="UTF-8"?><svg id="a" xmlns="http://www.w3.org/2000/svg" viewBox="0 0 409.69 278.66"><defs><style>.b{fill:#1e345e;}</style></defs><path class="b" d="M139.33,278.66c23.95,0,46.48-6.05,66.05-16.6,19.45,10.32,41.62,16.25,65.22,16.25,76.96,0,139.09-62.25,139.09-139.09S347.44,.12,270.6,.12c-23.72,0-46.01,5.93-65.57,16.36C185.46,5.93,163.05,0,139.33,0,62.37,0,0,62.37,0,139.33c0,77.08,62.49,139.33,139.33,139.33ZM229.69,14.82l3.91,10.2,15.18-4.03-1.66-10.55c5.34-.95,10.67-1.54,16.13-1.9l1.07,10.67,15.77-.12,1.07-10.44c5.45,.47,10.79,1.19,16.13,2.37l-1.66,10.55,15.3,4.03,3.68-9.72c5.1,1.9,10.08,3.91,14.82,6.4l-4.27,9.72,13.64,7.71,5.93-8.3c4.51,3.08,8.66,6.52,12.81,9.96l-6.52,8.06,11.15,11.03,7.83-6.52c3.56,4.15,6.76,8.42,9.72,13.04l-8.3,6.05,7.94,13.52,9.25-4.15c2.25,4.86,4.39,9.84,6.05,15.06l-9.6,3.68,4.15,15.18,9.84-1.66c1.07,5.22,1.66,10.55,2.02,16.01l-10.08,1.19,.12,15.77,9.96,.95c-.36,5.1-.95,10.2-2.02,15.18l-10.2-1.54-3.79,15.3,9.49,3.44c-1.78,5.22-3.79,10.2-6.17,14.94l-9.49-4.03-7.59,13.76,8.3,5.81c-2.96,4.51-6.28,8.77-9.84,12.93l-8.18-6.4-10.91,11.27,6.52,7.83c-4.03,3.56-8.3,6.88-12.69,10.08l-6.28-8.42-13.52,8.06,4.39,9.37c-4.74,2.49-9.72,4.62-14.82,6.4l-4.03-9.72-15.06,4.51,1.9,10.2c-5.22,1.19-10.55,1.9-16.01,2.37l-1.42-10.55-15.77,.36-.83,10.44c-5.45-.24-10.79-.95-16.13-1.78l1.42-10.79-15.3-3.68-3.56,10.08c-5.57-1.78-11.15-4.03-16.36-6.52,10.32-6.52,19.8-14.35,28.1-23.36,9.72,3.08,19.92,4.74,30.36,4.74,24.19,0,48.02-9.25,66.05-24.9h32.61l-8.89-30.83c6.52-13.4,9.96-28.22,9.96-43.64,0-26.56-10.32-51.58-29.17-70.32-18.74-18.74-43.76-29.17-70.32-29.17-10.32,0-20.51,1.66-30.36,4.74-8.3-9.01-17.79-16.84-28.1-23.36,5.34-2.49,10.79-4.62,16.36-6.52Zm-24.07,55.97c10.79-5.22,21.11-11.74,30.48-19.57,9.49,10.32,17.19,22.29,23,35.22l-15.65,50.63h-36.29v-20.4h-6.28c-.47-3.56-1.07-7.11-1.9-10.67,6.52-4.74,10.79-12.45,10.79-21.11,.12-5.22-1.42-10.08-4.15-14.11Zm72.1,124.75h34.51l4.27,18.26h13.87c-16.01,12.33-36.64,20.4-58.46,20.4-9.25,0-18.26-1.3-27.04-3.91,4.27-4.98,9.01-10.91,12.57-16.48h15.65l4.62-18.26Zm8.18-33.2l9.49-39.01,9.13,39.01h-18.62Zm42.21-97.71h-62.25l-3.08,10.08c-4.98-9.49-10.91-18.26-17.91-26.21,8.77-2.61,17.79-3.79,27.04-3.79,25.38,0,49.09,9.84,67.12,27.75,17.91,17.91,27.75,41.74,27.75,67,0,13.04-2.61,25.38-7.35,36.64l-31.31-111.47Zm-120.95,123.2v-46.25h34.86l-22.53,72.22h27.63c-3.2,4.51-7.11,9.6-10.91,13.76-9.01-7.35-18.74-13.76-28.93-18.85v-20.87h-.12Zm25.85-139.92c-9.37,7.59-19.45,14.11-30.24,19.21-4.74-4.98-11.5-8.18-18.97-8.18h-1.9c-10.08-18.85-23.6-36.05-39.96-50.52,35.57,.71,67.83,15.65,91.07,39.49ZM141.82,14.7c14.23,13.16,26.09,28.46,35.22,45.06-9.6,2.61-17.08,10.55-18.85,20.4-5.34,.71-10.79,1.07-16.25,1.19V14.7h-.12Zm0,71.15c5.34-.12,10.55-.47,15.77-.95,0,14.35,11.74,26.09,26.09,26.09,4.03,0,7.83-.83,11.15-2.49,.59,2.73,1.07,5.45,1.42,8.18h-36.64v20.4h-17.79v-51.23Zm0,55.73h17.79v52.53c-5.93-.83-11.86-1.3-17.79-1.3v-51.23Zm0,55.85c5.93,0,11.98,.59,17.79,1.42v15.06h20.16c-9.37,18.38-22.53,35.93-37.95,50.28v-66.76Zm43.04,16.36h22.29c9.13,4.74,17.79,10.44,25.85,17.08-23.24,23.83-55.5,38.66-91.19,39.37,17.91-15.77,32.73-35.57,43.04-56.44Zm-139.21,17.08c7.71-6.28,16.48-12.57,25.14-17.08h14.82v-6.28c1.54-.59,3.2-1.19,4.86-1.78,10.32,23.95,25.97,46.01,45.89,64.63-35.57-.83-67.59-15.77-90.71-39.49Zm39.96-28.34v-9.72c.95,2.85,2.02,5.69,3.08,8.54l-3.08,1.19Zm51.58,61.54c-18.38-16.96-32.73-37.47-42.45-59.88,13.64-4.39,27.98-6.64,42.45-6.88v66.76Zm0-71.27c-15.06,.24-30,2.61-44.23,7.23-3.08-7.71-5.57-15.53-7.47-23.48v-15.42h41.27v-19.45h10.32v51.11h.12Zm0-55.73h-10.32v-13.99h-41.27v-19.45h46.36v-17.91c1.78,.12,3.56,.12,5.34,.12v51.23h-.12Zm0-55.73c-1.78,0-3.56-.12-5.34-.12v-17.91h-31.78c9.37-18.02,21.82-34.51,37.12-48.62V81.35Zm0-72.93c-17.67,15.53-31.9,34.27-42.21,54.78h-26.32c-8.06-4.39-15.77-9.49-22.89-15.42C69.01,23.95,101.39,9.01,137.2,8.42ZM42.57,51.23c5.34,4.51,11.03,8.54,16.96,12.1h-26.21v73.76H8.42c.59-33.08,13.4-63.2,34.15-85.85Zm-9.25,90.36v72.22h28.81c-6.52,3.79-13.64,8.89-19.57,13.76-20.75-22.77-33.56-52.89-34.03-85.97h24.78Z"/></svg>